# xmcd CD database file
#
# Track frame offsets:
#	150
#	16719
#	43591
#	85159
#	122351
#	164620
#	175762
#	207612
#	234393
#
# Disc length: 3930 seconds
#
# Revision: 0
# Processed by: cddbd v1.5.2PL0 Copyright (c) Steve Scherf et al.
# Submitted via: NeoAudio 9.9.9
#
DISCID=690f5809
DTITLE=Jazz Is Dead - Grateful Jazz
DYEAR=2015
DGENRE=Jazz
TTITLE0=Cumberland Blues
TTITLE1=Sugar Magnolia
TTITLE2=Jack Straw
TTITLE3=Truckin'
TTITLE4=Attics Of My Life
TTITLE5=Friend Of The Devil
TTITLE6=Uncle John's Band
TTITLE7=Mr. Charlie> One More Saturday Night
TTITLE8=Dark Star
EXTD=YEAR: 2015
EXTT0=
EXTT1=
EXTT2=
EXTT3=
EXTT4=
EXTT5=
EXTT6=
EXTT7=
EXTT8=
PLAYORDER=
